# xmcd
#
# Track frame offsets: 
#        150
#        15913
#        29821
#        43192
#        61155
#        75498
#        89406
#        104670
#        121691
#        137544
#
# Disc length: 2066 seconds
#
# Revision: 0
# Processed by: cddbd v1.5.2PL0 Copyright (c) Steve Scherf et al.
# Submitted via: ExactAudioCopyFreeDBPlugin 1.0
#
DISCID=7908100a
DTITLE=Trace Adkins - Dreamin' Out Loud
DYEAR=1996
DGENRE=Country
TTITLE0=There's A Girl In Texas
TTITLE1=I Left Something Turned On At Home
TTITLE2=Every Light In The House
TTITLE3=(This Ain't) No Thinkin' Thing
TTITLE4=Dreamin' Out Loud
TTITLE5=If I Fall (You're Goin' With Me)
TTITLE6=It Was You 
TTITLE7=I Can Only Love You Like A Man
TTITLE8=634-5789
TTITLE9=A Bad Way Of Saying Goodbye
EXTD=
EXTT0=
EXTT1=
EXTT2=
EXTT3=
EXTT4=
EXTT5=
EXTT6=
EXTT7=
EXTT8=
EXTT9=
PLAYORDER=
